<svg xmlns="http://www.w3.org/2000/svg" width="450" height="165" viewBox="0 0 450 165">
        <style>
            .panel { fill: #1a1b26; stroke: #383e5a; stroke-width: 1; rx: 4.5px; }
            .title { font: bold 16px 'Segoe UI', Ubuntu, Sans-Serif; fill: #70a5fd; }
            .section-label { font: 600 9px 'Segoe UI', Ubuntu, Sans-Serif; fill: #787c99; letter-spacing: 0.5px; }
            .metric-label { font: 600 12px 'Segoe UI', Ubuntu, Sans-Serif; fill: #7982a9; }
            .metric-value { font: bold 13px 'Segoe UI', Ubuntu, Sans-Serif; fill: #acb0d0; }
        </style>
        
        # SỬA TẠI ĐÂY: Khóa chặt chiều cao khung nền đúng 163px để khớp viền 165px tổng
        <rect width="448" height="163" x="1" y="1" class="panel"/>
        
        <text x="22" y="30" class="title">Anki Learning Analytics</text>
        <line x1="22" y1="42" x2="428" y2="42" stroke="#383e5a" stroke-width="1"/>
        
        <text x="22" y="56" class="section-label">30-DAY REVIEW INTENSITY</text>
        
        # SỬA TẠI ĐÂY: Hạ nhẹ tỉ lệ scale xuống 1.08 và dịch trục Y (độ cao) lên xíu (translate 2, 2)
        <g transform="translate(2, 2) scale(1.08)">
            <rect x="30" y="65" width="13" height="13" fill="#161b22" rx="2" ry="2"><title>2026-05-10: 0 reviews</title></rect>
        <rect x="30" y="82" width="13" height="13" fill="#161b22" rx="2" ry="2"><title>2026-05-11: 0 reviews</title></rect>
        <rect x="30" y="99" width="13" height="13" fill="#161b22" rx="2" ry="2"><title>2026-05-12: 0 reviews</title></rect>
        <rect x="30" y="116" width="13" height="13" fill="#161b22" rx="2" ry="2"><title>2026-05-13: 0 reviews</title></rect>
        <rect x="30" y="133" width="13" height="13" fill="#216e39" rx="2" ry="2"><title>2026-05-14: 355 reviews</title></rect>
        <rect x="47" y="65" width="13" height="13" fill="#216e39" rx="2" ry="2"><title>2026-05-15: 107 reviews</title></rect>
        <rect x="47" y="82" width="13" height="13" fill="#216e39" rx="2" ry="2"><title>2026-05-16: 295 reviews</title></rect>
        <rect x="47" y="99" width="13" height="13" fill="#216e39" rx="2" ry="2"><title>2026-05-17: 197 reviews</title></rect>
        <rect x="47" y="116" width="13" height="13" fill="#216e39" rx="2" ry="2"><title>2026-05-18: 280 reviews</title></rect>
        <rect x="47" y="133" width="13" height="13" fill="#216e39" rx="2" ry="2"><title>2026-05-19: 274 reviews</title></rect>
        <rect x="64" y="65" width="13" height="13" fill="#161b22" rx="2" ry="2"><title>2026-05-20: 0 reviews</title></rect>
        <rect x="64" y="82" width="13" height="13" fill="#161b22" rx="2" ry="2"><title>2026-05-21: 0 reviews</title></rect>
        <rect x="64" y="99" width="13" height="13" fill="#161b22" rx="2" ry="2"><title>2026-05-22: 0 reviews</title></rect>
        <rect x="64" y="116" width="13" height="13" fill="#9be9a8" rx="2" ry="2"><title>2026-05-23: 8 reviews</title></rect>
        <rect x="64" y="133" width="13" height="13" fill="#40c463" rx="2" ry="2"><title>2026-05-24: 34 reviews</title></rect>
        <rect x="81" y="65" width="13" height="13" fill="#30a14e" rx="2" ry="2"><title>2026-05-25: 85 reviews</title></rect>
        <rect x="81" y="82" width="13" height="13" fill="#30a14e" rx="2" ry="2"><title>2026-05-26: 56 reviews</title></rect>
        <rect x="81" y="99" width="13" height="13" fill="#9be9a8" rx="2" ry="2"><title>2026-05-27: 7 reviews</title></rect>
        <rect x="81" y="116" width="13" height="13" fill="#9be9a8" rx="2" ry="2"><title>2026-05-28: 4 reviews</title></rect>
        <rect x="81" y="133" width="13" height="13" fill="#161b22" rx="2" ry="2"><title>2026-05-29: 0 reviews</title></rect>
        <rect x="98" y="65" width="13" height="13" fill="#9be9a8" rx="2" ry="2"><title>2026-05-30: 4 reviews</title></rect>
        <rect x="98" y="82" width="13" height="13" fill="#9be9a8" rx="2" ry="2"><title>2026-05-31: 5 reviews</title></rect>
        <rect x="98" y="99" width="13" height="13" fill="#161b22" rx="2" ry="2"><title>2026-06-01: 0 reviews</title></rect>
        <rect x="98" y="116" width="13" height="13" fill="#161b22" rx="2" ry="2"><title>2026-06-02: 0 reviews</title></rect>
        <rect x="98" y="133" width="13" height="13" fill="#9be9a8" rx="2" ry="2"><title>2026-06-03: 6 reviews</title></rect>
        <rect x="115" y="65" width="13" height="13" fill="#9be9a8" rx="2" ry="2"><title>2026-06-04: 6 reviews</title></rect>
        <rect x="115" y="82" width="13" height="13" fill="#216e39" rx="2" ry="2"><title>2026-06-05: 363 reviews</title></rect>
        <rect x="115" y="99" width="13" height="13" fill="#216e39" rx="2" ry="2"><title>2026-06-06: 336 reviews</title></rect>
        <rect x="115" y="116" width="13" height="13" fill="#30a14e" rx="2" ry="2"><title>2026-06-07: 88 reviews</title></rect>
        <rect x="115" y="133" width="13" height="13" fill="#9be9a8" rx="2" ry="2"><title>2026-06-08: 2 reviews</title></rect>
        <rect x="132" y="65" width="13" height="13" fill="#161b22" rx="2" ry="2"><title>2026-06-09: 0 reviews</title></rect>
        <rect x="132" y="82" width="13" height="13" fill="#9be9a8" rx="2" ry="2"><title>2026-06-10: 18 reviews</title></rect>
        <rect x="132" y="99" width="13" height="13" fill="#161b22" rx="2" ry="2"><title>2026-06-11: 0 reviews</title></rect>
        <rect x="132" y="116" width="13" height="13" fill="#40c463" rx="2" ry="2"><title>2026-06-12: 29 reviews</title></rect>
        <rect x="132" y="133" width="13" height="13" fill="#40c463" rx="2" ry="2"><title>2026-06-13: 35 reviews</title></rect>
        </g>
        
        <line x1="180" y1="52" x2="180" y2="145" stroke="#383e5a" stroke-width="1"/>
        
        <text x="200" y="70" class="metric-label">Total Reviews:</text>
        <text x="315" y="70" class="metric-value">2,594 cards</text>
        
        <text x="200" y="94" class="metric-label">Time Invested:</text>
        <text x="315" y="94" class="metric-value">6.9 hrs</text>
        
        <text x="200" y="118" class="metric-label">Retention Rate:</text>
        <text x="315" y="118" class="metric-value">80.6%</text>
        
        <text x="200" y="142" class="metric-label">Average Pace:</text>
        <text x="315" y="142" class="metric-value">9.6s/card</text>

        </svg>