<svg xmlns="http://www.w3.org/2000/svg" width="600" height="175" viewBox="0 0 600 175">
        <style>
            .panel { fill: #0d1117; stroke: #30363d; stroke-width: 1; rx: 6px; }
            .title { font: bold 14px 'Segoe UI', Ubuntu, Sans-Serif; fill: #58a6ff; }
            .section-label { font: 600 11px 'Segoe UI', Ubuntu, Sans-Serif; fill: #8b949e; }
            .metric-label { font: 600 12px 'Segoe UI', Ubuntu, Sans-Serif; fill: #8b949e; }
            .metric-value { font: bold 14px 'Segoe UI', Ubuntu, Sans-Serif; fill: #c9d1d9; }
        </style>
        
        <rect width="598" height="173" x="1" y="1" class="panel"/>
        
        <text x="25" y="32" class="title">Anki Learning Analytics</text>
        <line x1="25" y1="48" x2="575" y2="48" stroke="#30363d" stroke-width="1"/>
        
        <text x="25" y="58" class="section-label">30-DAY REVIEW INTENSITY</text>
        <rect x="30" y="65" width="13" height="13" fill="#161b22" rx="2" ry="2"><title>2026-05-10: 0 reviews</title></rect>
        <rect x="30" y="82" width="13" height="13" fill="#161b22" rx="2" ry="2"><title>2026-05-11: 0 reviews</title></rect>
        <rect x="30" y="99" width="13" height="13" fill="#161b22" rx="2" ry="2"><title>2026-05-12: 0 reviews</title></rect>
        <rect x="30" y="116" width="13" height="13" fill="#161b22" rx="2" ry="2"><title>2026-05-13: 0 reviews</title></rect>
        <rect x="30" y="133" width="13" height="13" fill="#216e39" rx="2" ry="2"><title>2026-05-14: 355 reviews</title></rect>
        <rect x="47" y="65" width="13" height="13" fill="#216e39" rx="2" ry="2"><title>2026-05-15: 107 reviews</title></rect>
        <rect x="47" y="82" width="13" height="13" fill="#216e39" rx="2" ry="2"><title>2026-05-16: 295 reviews</title></rect>
        <rect x="47" y="99" width="13" height="13" fill="#216e39" rx="2" ry="2"><title>2026-05-17: 197 reviews</title></rect>
        <rect x="47" y="116" width="13" height="13" fill="#216e39" rx="2" ry="2"><title>2026-05-18: 280 reviews</title></rect>
        <rect x="47" y="133" width="13" height="13" fill="#216e39" rx="2" ry="2"><title>2026-05-19: 274 reviews</title></rect>
        <rect x="64" y="65" width="13" height="13" fill="#161b22" rx="2" ry="2"><title>2026-05-20: 0 reviews</title></rect>
        <rect x="64" y="82" width="13" height="13" fill="#161b22" rx="2" ry="2"><title>2026-05-21: 0 reviews</title></rect>
        <rect x="64" y="99" width="13" height="13" fill="#161b22" rx="2" ry="2"><title>2026-05-22: 0 reviews</title></rect>
        <rect x="64" y="116" width="13" height="13" fill="#9be9a8" rx="2" ry="2"><title>2026-05-23: 8 reviews</title></rect>
        <rect x="64" y="133" width="13" height="13" fill="#40c463" rx="2" ry="2"><title>2026-05-24: 34 reviews</title></rect>
        <rect x="81" y="65" width="13" height="13" fill="#30a14e" rx="2" ry="2"><title>2026-05-25: 85 reviews</title></rect>
        <rect x="81" y="82" width="13" height="13" fill="#30a14e" rx="2" ry="2"><title>2026-05-26: 56 reviews</title></rect>
        <rect x="81" y="99" width="13" height="13" fill="#9be9a8" rx="2" ry="2"><title>2026-05-27: 7 reviews</title></rect>
        <rect x="81" y="116" width="13" height="13" fill="#9be9a8" rx="2" ry="2"><title>2026-05-28: 4 reviews</title></rect>
        <rect x="81" y="133" width="13" height="13" fill="#161b22" rx="2" ry="2"><title>2026-05-29: 0 reviews</title></rect>
        <rect x="98" y="65" width="13" height="13" fill="#9be9a8" rx="2" ry="2"><title>2026-05-30: 4 reviews</title></rect>
        <rect x="98" y="82" width="13" height="13" fill="#9be9a8" rx="2" ry="2"><title>2026-05-31: 5 reviews</title></rect>
        <rect x="98" y="99" width="13" height="13" fill="#161b22" rx="2" ry="2"><title>2026-06-01: 0 reviews</title></rect>
        <rect x="98" y="116" width="13" height="13" fill="#161b22" rx="2" ry="2"><title>2026-06-02: 0 reviews</title></rect>
        <rect x="98" y="133" width="13" height="13" fill="#9be9a8" rx="2" ry="2"><title>2026-06-03: 6 reviews</title></rect>
        <rect x="115" y="65" width="13" height="13" fill="#9be9a8" rx="2" ry="2"><title>2026-06-04: 6 reviews</title></rect>
        <rect x="115" y="82" width="13" height="13" fill="#216e39" rx="2" ry="2"><title>2026-06-05: 363 reviews</title></rect>
        <rect x="115" y="99" width="13" height="13" fill="#216e39" rx="2" ry="2"><title>2026-06-06: 336 reviews</title></rect>
        <rect x="115" y="116" width="13" height="13" fill="#30a14e" rx="2" ry="2"><title>2026-06-07: 88 reviews</title></rect>
        <rect x="115" y="133" width="13" height="13" fill="#9be9a8" rx="2" ry="2"><title>2026-06-08: 2 reviews</title></rect>
        <rect x="132" y="65" width="13" height="13" fill="#161b22" rx="2" ry="2"><title>2026-06-09: 0 reviews</title></rect>
        <rect x="132" y="82" width="13" height="13" fill="#9be9a8" rx="2" ry="2"><title>2026-06-10: 18 reviews</title></rect>
        <rect x="132" y="99" width="13" height="13" fill="#161b22" rx="2" ry="2"><title>2026-06-11: 0 reviews</title></rect>
        <rect x="132" y="116" width="13" height="13" fill="#40c463" rx="2" ry="2"><title>2026-06-12: 29 reviews</title></rect>
        <rect x="132" y="133" width="13" height="13" fill="#9be9a8" rx="2" ry="2"><title>2026-06-13: 16 reviews</title></rect>
        
        <line x1="175" y1="58" x2="175" y2="150" stroke="#30363d" stroke-width="0.8" stroke-dasharray="2,2"/>
        
        <text x="200" y="72" class="metric-label">Total Reviews:</text>
        <text x="320" y="72" class="metric-value">2,575 cards</text>
        
        <text x="200" y="96" class="metric-label">Time Invested:</text>
        <text x="320" y="96" class="metric-value">6.9 hrs</text>
        
        <text x="200" y="120" class="metric-label">Retention Rate:</text>
        <text x="320" y="120" class="metric-value">80.6%</text>
        
        <text x="200" y="144" class="metric-label">Average Pace:</text>
        <text x="320" y="144" class="metric-value">9.6s/card</text>

        </svg>