<svg xmlns="http://www.w3.org/2000/svg" width="467" height="195" viewBox="0 0 467 195">
        <style>
            .panel { fill: #1a1b26; stroke: #ffffff; stroke-width: 1; rx: 4.5px; }
            .title { font: bold 18px 'Segoe UI', Ubuntu, Sans-Serif; fill: #70a5fd; }
            .metric-label { font: 600 13px 'Segoe UI', Ubuntu, Sans-Serif; fill: #ffffff; }
            .metric-value { font: bold 14px 'Segoe UI', Ubuntu, Sans-Serif; fill: #38bdae; }
        </style>
        
        <rect width="465" height="193" x="1" y="1" class="panel"/>
        
        <text x="25" y="35" class="title">My language learning journey (Anki - 30 days)</text>
        <line x1="25" y1="50" x2="442" y2="50" stroke="#383e5a" stroke-width="1"/>
        
        <g transform="translate(5, -10) scale(1.15)">
            <rect x="30" y="65" width="13" height="13" fill="#161b22" rx="2" ry="2"><title>2026-05-11: 0 reviews</title></rect>
        <rect x="30" y="82" width="13" height="13" fill="#161b22" rx="2" ry="2"><title>2026-05-12: 0 reviews</title></rect>
        <rect x="30" y="99" width="13" height="13" fill="#161b22" rx="2" ry="2"><title>2026-05-13: 0 reviews</title></rect>
        <rect x="30" y="116" width="13" height="13" fill="#161b22" rx="2" ry="2"><title>2026-05-14: 0 reviews</title></rect>
        <rect x="30" y="133" width="13" height="13" fill="#216e39" rx="2" ry="2"><title>2026-05-15: 107 reviews</title></rect>
        <rect x="47" y="65" width="13" height="13" fill="#216e39" rx="2" ry="2"><title>2026-05-16: 295 reviews</title></rect>
        <rect x="47" y="82" width="13" height="13" fill="#216e39" rx="2" ry="2"><title>2026-05-17: 197 reviews</title></rect>
        <rect x="47" y="99" width="13" height="13" fill="#216e39" rx="2" ry="2"><title>2026-05-18: 280 reviews</title></rect>
        <rect x="47" y="116" width="13" height="13" fill="#216e39" rx="2" ry="2"><title>2026-05-19: 274 reviews</title></rect>
        <rect x="47" y="133" width="13" height="13" fill="#161b22" rx="2" ry="2"><title>2026-05-20: 0 reviews</title></rect>
        <rect x="64" y="65" width="13" height="13" fill="#161b22" rx="2" ry="2"><title>2026-05-21: 0 reviews</title></rect>
        <rect x="64" y="82" width="13" height="13" fill="#161b22" rx="2" ry="2"><title>2026-05-22: 0 reviews</title></rect>
        <rect x="64" y="99" width="13" height="13" fill="#9be9a8" rx="2" ry="2"><title>2026-05-23: 8 reviews</title></rect>
        <rect x="64" y="116" width="13" height="13" fill="#40c463" rx="2" ry="2"><title>2026-05-24: 34 reviews</title></rect>
        <rect x="64" y="133" width="13" height="13" fill="#30a14e" rx="2" ry="2"><title>2026-05-25: 85 reviews</title></rect>
        <rect x="81" y="65" width="13" height="13" fill="#30a14e" rx="2" ry="2"><title>2026-05-26: 56 reviews</title></rect>
        <rect x="81" y="82" width="13" height="13" fill="#9be9a8" rx="2" ry="2"><title>2026-05-27: 7 reviews</title></rect>
        <rect x="81" y="99" width="13" height="13" fill="#9be9a8" rx="2" ry="2"><title>2026-05-28: 4 reviews</title></rect>
        <rect x="81" y="116" width="13" height="13" fill="#161b22" rx="2" ry="2"><title>2026-05-29: 0 reviews</title></rect>
        <rect x="81" y="133" width="13" height="13" fill="#9be9a8" rx="2" ry="2"><title>2026-05-30: 4 reviews</title></rect>
        <rect x="98" y="65" width="13" height="13" fill="#9be9a8" rx="2" ry="2"><title>2026-05-31: 5 reviews</title></rect>
        <rect x="98" y="82" width="13" height="13" fill="#161b22" rx="2" ry="2"><title>2026-06-01: 0 reviews</title></rect>
        <rect x="98" y="99" width="13" height="13" fill="#161b22" rx="2" ry="2"><title>2026-06-02: 0 reviews</title></rect>
        <rect x="98" y="116" width="13" height="13" fill="#9be9a8" rx="2" ry="2"><title>2026-06-03: 6 reviews</title></rect>
        <rect x="98" y="133" width="13" height="13" fill="#9be9a8" rx="2" ry="2"><title>2026-06-04: 6 reviews</title></rect>
        <rect x="115" y="65" width="13" height="13" fill="#216e39" rx="2" ry="2"><title>2026-06-05: 363 reviews</title></rect>
        <rect x="115" y="82" width="13" height="13" fill="#216e39" rx="2" ry="2"><title>2026-06-06: 336 reviews</title></rect>
        <rect x="115" y="99" width="13" height="13" fill="#30a14e" rx="2" ry="2"><title>2026-06-07: 88 reviews</title></rect>
        <rect x="115" y="116" width="13" height="13" fill="#9be9a8" rx="2" ry="2"><title>2026-06-08: 2 reviews</title></rect>
        <rect x="115" y="133" width="13" height="13" fill="#161b22" rx="2" ry="2"><title>2026-06-09: 0 reviews</title></rect>
        <rect x="132" y="65" width="13" height="13" fill="#9be9a8" rx="2" ry="2"><title>2026-06-10: 18 reviews</title></rect>
        <rect x="132" y="82" width="13" height="13" fill="#161b22" rx="2" ry="2"><title>2026-06-11: 0 reviews</title></rect>
        <rect x="132" y="99" width="13" height="13" fill="#40c463" rx="2" ry="2"><title>2026-06-12: 29 reviews</title></rect>
        <rect x="132" y="116" width="13" height="13" fill="#30a14e" rx="2" ry="2"><title>2026-06-13: 52 reviews</title></rect>
        <rect x="132" y="133" width="13" height="13" fill="#216e39" rx="2" ry="2"><title>2026-06-14: 176 reviews</title></rect>
        </g>
        
        <line x1="195" y1="58" x2="195" y2="175" stroke="#383e5a" stroke-width="1"/>
        
        <text x="215" y="80" class="metric-label">Total Reviews:</text>
        <text x="330" y="80" class="metric-value">2,432 cards</text>
        
        <text x="215" y="110" class="metric-label">Time Invested:</text>
        <text x="330" y="110" class="metric-value">5.6 hrs</text>
        
        <text x="215" y="140" class="metric-label">Retention Rate:</text>
        <text x="330" y="140" class="metric-value">81.6%</text>
        
        <text x="215" y="170" class="metric-label">Average Pace:</text>
        <text x="330" y="170" class="metric-value">8.3s/card</text>
    </svg>