<svg xmlns="http://www.w3.org/2000/svg" width="467" height="195" viewBox="0 0 467 195">
    <style>
        .panel { fill: #1a1b26; stroke: #ffffff; stroke-width: 1; rx: 4.5px; }
        .title { font: bold 18px 'Segoe UI', Ubuntu, Sans-Serif; fill: #70a5fd; }
        .lang-name { font: 600 13px 'Segoe UI', Ubuntu, Sans-Serif; fill: #ffffff; }
        .lang-pct { font: 400 13px 'Segoe UI', Ubuntu, Sans-Serif; fill: #9e9e9e; }
    </style>
    <rect width="465" height="193" x="1" y="1" class="panel"/>
    <text x="25" y="35" class="title">Most Used Languages</text>
    <line x1="25" y1="50" x2="442" y2="50" stroke="#383e5a" stroke-width="1"/>
    <g><path d="M 120 120 L 120.0 60.0 A 60 60 0 1 1 82.11483395325538 166.52648916059096 Z" fill="#00ADD8"/><path d="M 120 120 L 82.11483395325538 166.52648916059096 A 60 60 0 0 1 117.15953062517148 60.06727326634753 Z" fill="#f1e05a"/><path d="M 120 120 L 117.15953062517148 60.06727326634753 A 60 60 0 0 1 119.99999999999999 60.0 Z" fill="#dea584"/></g><g><circle cx="230" cy="81" r="5" fill="#00ADD8"/><text x="245" y="85" class="lang-name">Go</text><text x="335" y="85" class="lang-pct" text-anchor="end">60.9%</text><circle cx="230" cy="107" r="5" fill="#f1e05a"/><text x="245" y="111" class="lang-name">JavaScript</text><text x="335" y="111" class="lang-pct" text-anchor="end">38.4%</text><circle cx="230" cy="133" r="5" fill="#dea584"/><text x="245" y="137" class="lang-name">Rust</text><text x="335" y="137" class="lang-pct" text-anchor="end">0.8%</text></g></svg>