<svg xmlns="http://www.w3.org/2000/svg" width="467" height="195" viewBox="0 0 467 195">
    <style>
        .panel { fill: #1a1b26; stroke: #ffffff; stroke-width: 1; rx: 4.5px; }
        .title { font: bold 18px 'Segoe UI', Ubuntu, Sans-Serif; fill: #70a5fd; }
        .lang-name { font: 600 13px 'Segoe UI', Ubuntu, Sans-Serif; fill: #ffffff; }
        .lang-pct { font: 400 13px 'Segoe UI', Ubuntu, Sans-Serif; fill: #9e9e9e; }
    </style>
    <rect width="465" height="193" x="1" y="1" class="panel"/>
    <text x="25" y="35" class="title">Most Used Languages</text>
    <line x1="25" y1="50" x2="442" y2="50" stroke="#383e5a" stroke-width="1"/>
    <g><path d="M 110 120 L 110.0 60.0 A 60 60 0 1 1 81.04034416927176 172.5484379802651 Z" fill="#00ADD8"/><path d="M 110 120 L 81.04034416927176 172.5484379802651 A 60 60 0 0 1 107.29287898777567 60.06110198022345 Z" fill="#f1e05a"/><path d="M 110 120 L 107.29287898777567 60.06110198022345 A 60 60 0 0 1 109.99999999999999 60.0 Z" fill="#dea584"/></g><g><circle cx="195" cy="81" r="5" fill="#00ADD8"/><text x="210" y="85" class="lang-name">Go</text><text x="320" y="85" class="lang-pct" text-anchor="end">58.0%</text><circle cx="195" cy="107" r="5" fill="#f1e05a"/><text x="210" y="111" class="lang-name">JavaScript</text><text x="320" y="111" class="lang-pct" text-anchor="end">41.3%</text><circle cx="195" cy="133" r="5" fill="#dea584"/><text x="210" y="137" class="lang-name">Rust</text><text x="320" y="137" class="lang-pct" text-anchor="end">0.7%</text></g></svg>